<svg aria-roledescription="er" role="graphics-document document" viewBox="0 0 368.91278076171875 322" style="max-width: 368.913px; background-color: white;" xmlns:xlink="http://www.w3.org/1999/xlink" xmlns="http://www.w3.org/2000/svg" width="100%" id="my-svg"><style>#my-svg{font-family:"trebuchet ms",verdana,arial,sans-serif;font-size:16px;fill:#000000;}#my-svg .error-icon{fill:#552222;}#my-svg .error-text{fill:#552222;stroke:#552222;}#my-svg .edge-thickness-normal{stroke-width:1px;}#my-svg .edge-thickness-thick{stroke-width:3.5px;}#my-svg .edge-pattern-solid{stroke-dasharray:0;}#my-svg .edge-thickness-invisible{stroke-width:0;fill:none;}#my-svg .edge-pattern-dashed{stroke-dasharray:3;}#my-svg .edge-pattern-dotted{stroke-dasharray:2;}#my-svg .marker{fill:#000000;stroke:#000000;}#my-svg .marker.cross{stroke:#000000;}#my-svg svg{font-family:"trebuchet ms",verdana,arial,sans-serif;font-size:16px;}#my-svg p{margin:0;}#my-svg .entityBox{fill:#cde498;stroke:#13540c;}#my-svg .attributeBoxOdd{fill:#ffffff;stroke:#13540c;}#my-svg .attributeBoxEven{fill:#f2f2f2;stroke:#13540c;}#my-svg .relationshipLabelBox{fill:hsl(78.1578947368, 58.4615384615%, 84.5098039216%);opacity:0.7;background-color:hsl(78.1578947368, 58.4615384615%, 84.5098039216%);}#my-svg .relationshipLabelBox rect{opacity:0.5;}#my-svg .relationshipLine{stroke:#000000;}#my-svg .entityTitleText{text-anchor:middle;font-size:18px;fill:#000000;}#my-svg #MD_PARENT_START{fill:#f5f5f5!important;stroke:#000000!important;stroke-width:1;}#my-svg #MD_PARENT_END{fill:#f5f5f5!important;stroke:#000000!important;stroke-width:1;}#my-svg :root{--mermaid-font-family:"trebuchet ms",verdana,arial,sans-serif;}</style><g/><defs><marker orient="auto" markerHeight="240" markerWidth="190" refY="7" refX="0" id="MD_PARENT_START"><path d="M 18,7 L9,13 L1,7 L9,1 Z"/></marker></defs><defs><marker orient="auto" markerHeight="28" markerWidth="20" refY="7" refX="19" id="MD_PARENT_END"><path d="M 18,7 L9,13 L1,7 L9,1 Z"/></marker></defs><defs><marker orient="auto" markerHeight="18" markerWidth="18" refY="9" refX="0" id="ONLY_ONE_START"><path d="M9,0 L9,18 M15,0 L15,18" fill="none" stroke="gray"/></marker></defs><defs><marker orient="auto" markerHeight="18" markerWidth="18" refY="9" refX="18" id="ONLY_ONE_END"><path d="M3,0 L3,18 M9,0 L9,18" fill="none" stroke="gray"/></marker></defs><defs><marker orient="auto" markerHeight="18" markerWidth="30" refY="9" refX="0" id="ZERO_OR_ONE_START"><circle r="6" cy="9" cx="21" fill="white" stroke="gray"/><path d="M9,0 L9,18" fill="none" stroke="gray"/></marker></defs><defs><marker orient="auto" markerHeight="18" markerWidth="30" refY="9" refX="30" id="ZERO_OR_ONE_END"><circle r="6" cy="9" cx="9" fill="white" stroke="gray"/><path d="M21,0 L21,18" fill="none" stroke="gray"/></marker></defs><defs><marker orient="auto" markerHeight="36" markerWidth="45" refY="18" refX="18" id="ONE_OR_MORE_START"><path d="M0,18 Q 18,0 36,18 Q 18,36 0,18 M42,9 L42,27" fill="none" stroke="gray"/></marker></defs><defs><marker orient="auto" markerHeight="36" markerWidth="45" refY="18" refX="27" id="ONE_OR_MORE_END"><path d="M3,9 L3,27 M9,18 Q27,0 45,18 Q27,36 9,18" fill="none" stroke="gray"/></marker></defs><defs><marker orient="auto" markerHeight="36" markerWidth="57" refY="18" refX="18" id="ZERO_OR_MORE_START"><circle r="6" cy="18" cx="48" fill="white" stroke="gray"/><path d="M0,18 Q18,0 36,18 Q18,36 0,18" fill="none" stroke="gray"/></marker></defs><defs><marker orient="auto" markerHeight="36" markerWidth="57" refY="18" refX="39" id="ZERO_OR_MORE_END"><circle r="6" cy="18" cx="9" fill="white" stroke="gray"/><path d="M21,18 Q39,0 57,18 Q39,36 21,18" fill="none" stroke="gray"/></marker></defs><path style="stroke: gray; fill: none;" marker-start="url(#ZERO_OR_MORE_START)" marker-end="url(#ZERO_OR_MORE_END)" d="M266.54,100L261.217,110.167C255.894,120.333,245.248,140.667,244.289,159.167C243.329,177.667,252.055,194.333,256.418,202.667L260.781,211" class="er relationshipLine"/><path style="stroke: gray; fill: none;" marker-start="url(#ZERO_OR_ONE_START)" marker-end="url(#ONLY_ONE_END)" d="M308.425,211L312.788,202.667C317.151,194.333,325.877,177.667,324.917,159.167C323.957,140.667,313.311,120.333,307.988,110.167L302.665,100" class="er relationshipLine"/><g transform="translate(20,20 )" id="entity-Users-8b6eb67b-f64b-5426-9c24-135a96b8b656"><rect height="91" width="114.60264587402344" y="0" x="0" class="er entityBox"/><text style="dominant-baseline: middle; text-anchor: middle; font-size: 12px;" transform="translate(57.30132293701172,12)" y="0" x="0" id="text-entity-Users-8b6eb67b-f64b-5426-9c24-135a96b8b656" class="er entityLabel">Users</text><rect height="23" width="37.39605712890625" y="24" x="0" class="er attributeBoxOdd"/><text style="dominant-baseline: middle; font-size: 10.2px;" transform="translate(5,35.5)" y="0" x="0" id="text-entity-Users-8b6eb67b-f64b-5426-9c24-135a96b8b656-attr-1-type" class="er entityLabel">Int</text><rect height="23" width="54.62846374511719" y="24" x="37.39605712890625" class="er attributeBoxOdd"/><text style="dominant-baseline: middle; font-size: 10.2px;" transform="translate(42.39605712890625,35.5)" y="0" x="0" id="text-entity-Users-8b6eb67b-f64b-5426-9c24-135a96b8b656-attr-1-name" class="er entityLabel">id</text><rect height="23" width="22.578125" y="24" x="92.02452087402344" class="er attributeBoxOdd"/><text style="dominant-baseline: middle; font-size: 10.2px;" transform="translate(97.02452087402344,35.5)" y="0" x="0" id="text-entity-Users-8b6eb67b-f64b-5426-9c24-135a96b8b656-attr-1-comment" class="er entityLabel">🗝️</text><rect height="22" width="37.39605712890625" y="47" x="0" class="er attributeBoxEven"/><text style="dominant-baseline: middle; font-size: 10.2px;" transform="translate(5,58)" y="0" x="0" id="text-entity-Users-8b6eb67b-f64b-5426-9c24-135a96b8b656-attr-2-type" class="er entityLabel">String</text><rect height="22" width="54.62846374511719" y="47" x="37.39605712890625" class="er attributeBoxEven"/><text style="dominant-baseline: middle; font-size: 10.2px;" transform="translate(42.39605712890625,58)" y="0" x="0" id="text-entity-Users-8b6eb67b-f64b-5426-9c24-135a96b8b656-attr-2-name" class="er entityLabel">username</text><rect height="22" width="22.578125" y="47" x="92.02452087402344" class="er attributeBoxEven"/><text style="dominant-baseline: middle; font-size: 10.2px;" transform="translate(97.02452087402344,58)" y="0" x="0" id="text-entity-Users-8b6eb67b-f64b-5426-9c24-135a96b8b656-attr-2-comment" class="er entityLabel"/><rect height="22" width="37.39605712890625" y="69" x="0" class="er attributeBoxOdd"/><text style="dominant-baseline: middle; font-size: 10.2px;" transform="translate(5,80)" y="0" x="0" id="text-entity-Users-8b6eb67b-f64b-5426-9c24-135a96b8b656-attr-3-type" class="er entityLabel">String</text><rect height="22" width="54.62846374511719" y="69" x="37.39605712890625" class="er attributeBoxOdd"/><text style="dominant-baseline: middle; font-size: 10.2px;" transform="translate(42.39605712890625,80)" y="0" x="0" id="text-entity-Users-8b6eb67b-f64b-5426-9c24-135a96b8b656-attr-3-name" class="er entityLabel">password</text><rect height="22" width="22.578125" y="69" x="92.02452087402344" class="er attributeBoxOdd"/><text style="dominant-baseline: middle; font-size: 10.2px;" transform="translate(97.02452087402344,80)" y="0" x="0" id="text-entity-Users-8b6eb67b-f64b-5426-9c24-135a96b8b656-attr-3-comment" class="er entityLabel"/></g><g transform="translate(234.60264587402344,31 )" id="entity-Categories-4066dbfd-a08d-5786-b5c1-a5236eeca05a"><rect height="69" width="100" y="0" x="0" class="er entityBox"/><text style="dominant-baseline: middle; text-anchor: middle; font-size: 12px;" transform="translate(50,12)" y="0" x="0" id="text-entity-Categories-4066dbfd-a08d-5786-b5c1-a5236eeca05a" class="er entityLabel">Categories</text><rect height="23" width="38.93835957845052" y="24" x="0" class="er attributeBoxOdd"/><text style="dominant-baseline: middle; font-size: 10.2px;" transform="translate(5,35.5)" y="0" x="0" id="text-entity-Categories-4066dbfd-a08d-5786-b5c1-a5236eeca05a-attr-1-type" class="er entityLabel">Int</text><rect height="23" width="36.94121297200521" y="24" x="38.93835957845052" class="er attributeBoxOdd"/><text style="dominant-baseline: middle; font-size: 10.2px;" transform="translate(43.93835957845052,35.5)" y="0" x="0" id="text-entity-Categories-4066dbfd-a08d-5786-b5c1-a5236eeca05a-attr-1-name" class="er entityLabel">id</text><rect height="23" width="24.12042744954427" y="24" x="75.87957255045573" class="er attributeBoxOdd"/><text style="dominant-baseline: middle; font-size: 10.2px;" transform="translate(80.87957255045573,35.5)" y="0" x="0" id="text-entity-Categories-4066dbfd-a08d-5786-b5c1-a5236eeca05a-attr-1-comment" class="er entityLabel">🗝️</text><rect height="22" width="38.93835957845052" y="47" x="0" class="er attributeBoxEven"/><text style="dominant-baseline: middle; font-size: 10.2px;" transform="translate(5,58)" y="0" x="0" id="text-entity-Categories-4066dbfd-a08d-5786-b5c1-a5236eeca05a-attr-2-type" class="er entityLabel">String</text><rect height="22" width="36.94121297200521" y="47" x="38.93835957845052" class="er attributeBoxEven"/><text style="dominant-baseline: middle; font-size: 10.2px;" transform="translate(43.93835957845052,58)" y="0" x="0" id="text-entity-Categories-4066dbfd-a08d-5786-b5c1-a5236eeca05a-attr-2-name" class="er entityLabel">name</text><rect height="22" width="24.12042744954427" y="47" x="75.87957255045573" class="er attributeBoxEven"/><text style="dominant-baseline: middle; font-size: 10.2px;" transform="translate(80.87957255045573,58)" y="0" x="0" id="text-entity-Categories-4066dbfd-a08d-5786-b5c1-a5236eeca05a-attr-2-comment" class="er entityLabel"/></g><g transform="translate(234.60264587402344,211 )" id="entity-Books-5e2bc31f-8ec9-51cd-9d88-5a97d7861887"><rect height="91" width="100" y="0" x="0" class="er entityBox"/><text style="dominant-baseline: middle; text-anchor: middle; font-size: 12px;" transform="translate(50,12)" y="0" x="0" id="text-entity-Books-5e2bc31f-8ec9-51cd-9d88-5a97d7861887" class="er entityLabel">Books</text><rect height="23" width="38.119903564453125" y="24" x="0" class="er attributeBoxOdd"/><text style="dominant-baseline: middle; font-size: 10.2px;" transform="translate(5,35.5)" y="0" x="0" id="text-entity-Books-5e2bc31f-8ec9-51cd-9d88-5a97d7861887-attr-1-type" class="er entityLabel">Int</text><rect height="23" width="38.578125" y="24" x="38.119903564453125" class="er attributeBoxOdd"/><text style="dominant-baseline: middle; font-size: 10.2px;" transform="translate(43.119903564453125,35.5)" y="0" x="0" id="text-entity-Books-5e2bc31f-8ec9-51cd-9d88-5a97d7861887-attr-1-name" class="er entityLabel">id</text><rect height="23" width="23.301971435546875" y="24" x="76.69802856445312" class="er attributeBoxOdd"/><text style="dominant-baseline: middle; font-size: 10.2px;" transform="translate(81.69802856445312,35.5)" y="0" x="0" id="text-entity-Books-5e2bc31f-8ec9-51cd-9d88-5a97d7861887-attr-1-comment" class="er entityLabel">🗝️</text><rect height="22" width="38.119903564453125" y="47" x="0" class="er attributeBoxEven"/><text style="dominant-baseline: middle; font-size: 10.2px;" transform="translate(5,58)" y="0" x="0" id="text-entity-Books-5e2bc31f-8ec9-51cd-9d88-5a97d7861887-attr-2-type" class="er entityLabel">String</text><rect height="22" width="38.578125" y="47" x="38.119903564453125" class="er attributeBoxEven"/><text style="dominant-baseline: middle; font-size: 10.2px;" transform="translate(43.119903564453125,58)" y="0" x="0" id="text-entity-Books-5e2bc31f-8ec9-51cd-9d88-5a97d7861887-attr-2-name" class="er entityLabel">title</text><rect height="22" width="23.301971435546875" y="47" x="76.69802856445312" class="er attributeBoxEven"/><text style="dominant-baseline: middle; font-size: 10.2px;" transform="translate(81.69802856445312,58)" y="0" x="0" id="text-entity-Books-5e2bc31f-8ec9-51cd-9d88-5a97d7861887-attr-2-comment" class="er entityLabel"/><rect height="22" width="38.119903564453125" y="69" x="0" class="er attributeBoxOdd"/><text style="dominant-baseline: middle; font-size: 10.2px;" transform="translate(5,80)" y="0" x="0" id="text-entity-Books-5e2bc31f-8ec9-51cd-9d88-5a97d7861887-attr-3-type" class="er entityLabel">String</text><rect height="22" width="38.578125" y="69" x="38.119903564453125" class="er attributeBoxOdd"/><text style="dominant-baseline: middle; font-size: 10.2px;" transform="translate(43.119903564453125,80)" y="0" x="0" id="text-entity-Books-5e2bc31f-8ec9-51cd-9d88-5a97d7861887-attr-3-name" class="er entityLabel">image</text><rect height="22" width="23.301971435546875" y="69" x="76.69802856445312" class="er attributeBoxOdd"/><text style="dominant-baseline: middle; font-size: 10.2px;" transform="translate(81.69802856445312,80)" y="0" x="0" id="text-entity-Books-5e2bc31f-8ec9-51cd-9d88-5a97d7861887-attr-3-comment" class="er entityLabel"/></g><rect height="14" width="26.564453125" y="147.8994598388672" x="231.38967895507812" class="er relationshipLabelBox"/><text style="text-anchor: middle; dominant-baseline: middle; font-size: 12px;" y="154.8994598388672" x="244.67190551757812" id="rel1" class="er relationshipLabel">book</text><rect height="14" width="47.67578125" y="147.89935302734375" x="300.69598388671875" class="er relationshipLabelBox"/><text style="text-anchor: middle; dominant-baseline: middle; font-size: 12px;" y="154.89935302734375" x="324.53387451171875" id="rel2" class="er relationshipLabel">category</text></svg>